<svg id="Capa_1" enable-background="new 0 0 512 512" height="512" viewBox="0 0 512 512" width="512" xmlns="http://www.w3.org/2000/svg"><g><path d="m502 0h-492c-5.523 0-10 4.477-10 10v492c0 5.523 4.477 10 10 10h492c5.523 0 10-4.477 10-10v-492c0-5.523-4.477-10-10-10zm-80 342v150h-31v-23.226c0-5.523-4.477-10-10-10s-10 4.477-10 10v23.226h-30v-100c0-5.523-4.477-10-10-10h-150c-5.523 0-10 4.477-10 10v100h-30v-22.169c0-5.523-4.477-10-10-10s-10 4.477-10 10v22.169h-31v-70c0-5.523-4.477-10-10-10h-60v-30h60c5.523 0 10-4.477 10-10v-197.84c0-2.752-1.135-5.383-3.136-7.272-2.002-1.89-4.697-2.871-7.442-2.711-3.701.214-7.544.323-11.422.323-16.262 0-32.373-1.925-48-5.722v-70.581c15.259 5.785 31.591 8.803 48 8.803 52.463 0 99.593-30.011 121.919-77h72.155c-5.754 19.303-14.346 37.571-25.634 54.44-2.06 3.07-2.25 7.01-.51 10.27s5.12 5.29 8.82 5.29h177.25v26.05c0 5.51 4.49 10 10 10 5.52 0 10-4.49 10-10v-36.05c0-2.63-1.07-5.21-2.93-7.07s-4.44-2.93-7.07-2.93h-169.42c8.77-15.77 15.6-32.59 20.28-50h209.14v262h-50v-75.95c0-5.52-4.49-10-10-10s-9.99 4.48-10 9.98v.02 85.95c0 2.63 1.07 5.21 2.93 7.07s4.44 2.93 7.07 2.93h60v30h-60c-5.523 0-10 4.477-10 10zm-101 150h-130v-90h130zm-301-312.699c15.687 3.448 31.778 5.199 48 5.199.667 0 1.334-.003 2-.009v177.509h-50zm147.326-159.301c-20.419 35.055-57.922 57-99.326 57-16.571 0-33.04-3.615-48-10.477v-46.523zm-147.326 412h50v60h-50zm422 60v-140h50v140z"/><path d="m256 171c-46.869 0-85 38.131-85 85s38.131 85 85 85 85-38.131 85-85-38.131-85-85-85zm0 150c-35.841 0-65-29.159-65-65s29.159-65 65-65 65 29.159 65 65-29.159 65-65 65z"/><path d="m131 304.397c-5.523 0-10 4.477-10 10v33.094c0 5.523 4.477 10 10 10s10-4.477 10-10v-33.094c0-5.523-4.477-10-10-10z"/><path d="m131 382.611c-5.523 0-10 4.477-10 10v32.084c0 5.523 4.477 10 10 10s10-4.477 10-10v-32.084c0-5.523-4.477-10-10-10z"/><path d="m133.902 227.285c-5.45-.827-10.556 2.933-11.381 8.394-1.009 6.679-1.521 13.516-1.521 20.321v13.223c0 5.523 4.477 10 10 10s10-4.477 10-10v-13.223c0-5.808.436-11.64 1.296-17.334.826-5.46-2.933-10.557-8.394-11.381z"/><path d="m276.577 142.834c9.657 1.744 19.063 4.73 27.957 8.876 1.367.637 2.804.939 4.219.939 3.766 0 7.374-2.139 9.07-5.777 2.333-5.005.167-10.955-4.838-13.289-10.452-4.873-21.506-8.382-32.855-10.431-5.431-.977-10.636 2.629-11.617 8.064-.982 5.435 2.629 10.637 8.064 11.618z"/><path d="m202.299 153.097c1.442 0 2.907-.313 4.295-.975 9.141-4.356 18.829-7.479 28.794-9.281 5.435-.983 9.043-6.185 8.061-11.62-.983-5.435-6.187-9.048-11.62-8.061-11.71 2.118-23.096 5.788-33.839 10.907-4.985 2.376-7.101 8.344-4.725 13.33 1.714 3.597 5.297 5.7 9.034 5.7z"/><path d="m381 381.556c-5.523 0-10 4.477-10 10v32.083c0 5.523 4.477 10 10 10s10-4.477 10-10v-32.083c0-5.523-4.477-10-10-10z"/><path d="m381 304.346c-5.523 0-10 4.477-10 10v32.09c0 5.523 4.477 10 10 10s10-4.477 10-10v-32.09c0-5.523-4.477-10-10-10z"/><path d="m377.854 226.268c-5.454.871-9.169 5.998-8.298 11.452.958 6 1.444 12.15 1.444 18.281v13.172c0 5.523 4.477 10 10 10s10-4.477 10-10v-13.173c0-7.184-.57-14.395-1.694-21.434-.87-5.454-5.998-9.168-11.452-8.298z"/><path d="m373.211 188.975c-5.723-9.987-12.72-19.229-20.796-27.469-3.865-3.944-10.198-4.007-14.141-.141-3.944 3.866-4.007 10.197-.142 14.141 6.885 7.024 12.849 14.901 17.726 23.412 1.848 3.225 5.218 5.03 8.686 5.03 1.686 0 3.395-.427 4.962-1.325 4.792-2.746 6.451-8.856 3.705-13.648z"/><path d="m172.929 162.063c-3.975-3.832-10.307-3.716-14.14.26-8.006 8.307-14.923 17.605-20.56 27.636-2.705 4.815-.995 10.912 3.82 13.617 1.549.87 3.23 1.284 4.889 1.284 3.497 0 6.893-1.838 8.728-5.104 4.802-8.548 10.698-16.472 17.523-23.554 3.833-3.975 3.717-10.306-.26-14.139z"/><circle cx="432" cy="161.05" r="10"/></g></svg>