<svg height="512" width="512" xmlns="http://www.w3.org/2000/svg"><circle cx="276" cy="502" r="10"/><path d="M376 80a39.732 39.732 0 00-20 5.382V80c0-22.056-17.944-40-40-40a39.732 39.732 0 00-20 5.382V40c0-22.056-17.944-40-40-40s-40 17.944-40 40v5.382A39.732 39.732 0 00196 40c-22.056 0-40 17.944-40 40v127.077C143.284 194.084 125.572 186 106 186c-5.522 0-10 4.478-10 10v160c0 28.171 13.457 55.087 36 72l15.999 11.999C164.224 452.172 176 478.247 176 502c0 5.522 4.478 10 10 10h45c5.522 0 10-4.478 10-10s-4.478-10-10-10h-35.54c-2.497-23.731-13.737-51.702-35.46-68l-15.999-11.999C126.468 398.846 116 377.911 116 356V207.005c22.794 4.646 40 24.85 40 48.995v60c0 5.522 4.478 10 10 10a70.035 70.035 0 0131.603 7.526c6.052 25.269 28.945 44.791 61.178 72.253 6.588 5.613 13.4 11.418 20.636 17.747 1.884 1.65 4.233 2.474 6.583 2.474s4.699-.824 6.584-2.474c7.235-6.329 14.048-12.134 20.636-17.747C351.024 373.569 376 352.29 376 319.84c0-29.526-20.947-53.84-50-53.84-19.864 0-32.464 11.341-40 22.295C278.464 277.341 265.864 266 246 266c-26.128 0-45.804 19.686-49.401 45.348A90.105 90.105 0 00176 306.556V80c0-11.028 8.972-20 20-20s20 8.972 20 20v136c0 5.522 4.478 10 10 10s10-4.478 10-10V40c0-11.028 8.972-20 20-20s20 8.972 20 20v176c0 5.522 4.478 10 10 10s10-4.478 10-10V80c0-11.028 8.972-20 20-20s20 8.972 20 20v136c0 5.522 4.478 10 10 10s10-4.478 10-10v-96c0-11.028 8.972-20 20-20s20 8.972 20 20v237.41c0 22.45-6.375 44.328-18.436 63.269-11.761 18.471-19.785 45.669-21.303 71.321H321c-5.522 0-10 4.478-10 10s4.478 10 10 10h45c5.522 0 10-4.478 10-10v-1.31c0-24.492 7.236-51.682 18.436-69.27A137.572 137.572 0 00416 357.41V120c0-22.056-17.944-40-40-40zM246 286c22.274 0 30.044 26.543 30.366 27.683a10.001 10.001 0 0019.278-.037C295.72 313.368 303.486 286 326 286c17.103 0 30 14.548 30 33.84 0 23.215-20.984 41.095-55.751 70.716-4.613 3.931-9.336 7.954-14.249 12.197a2745.692 2745.692 0 00-14.249-12.197C236.984 360.935 216 343.055 216 319.84c0-19.292 12.897-33.84 30-33.84z"/></svg>