<svg xmlns="http://www.w3.org/2000/svg" xml:space="preserve" width="2.66666in" height="2.66666in" version="1.1" style="shape-rendering:geometricPrecision; text-rendering:geometricPrecision; image-rendering:optimizeQuality; fill-rule:evenodd; clip-rule:evenodd" viewBox="0 0 2666.66 2666.66" xmlns:xlink="http://www.w3.org/1999/xlink" xmlns:xodm="http://www.corel.com/coreldraw/odm/2003">
<defs>
<style type="text/css">
   
    .fil4 {fill:#8CCCEB}
    .fil1 {fill:#B05F3B}
    .fil2 {fill:#D6E3FF}
    .fil0 {fill:#FF9AA2}
    .fil3 {fill:#FFB800}
    .fil5 {fill:white}
   
  </style>
</defs>
<g id="Layer_x0020_1">
<metadata id="CorelCorpID_0Corel-Layer"></metadata>
<circle class="fil0" cx="1333.33" cy="1333.33" r="1333.33" id="id_101" style="fill: rgb(56, 56, 56);"></circle>
<g id="_2151358357920">
<path class="fil1" d="M1792.55 2186.66l-918.44 0c-63.2,0 -114.62,-51.41 -114.62,-114.62l0 -1289.35c0,-63.21 51.42,-114.63 114.62,-114.63l196.63 0c10.19,0 18.61,7.63 19.84,17.49l485.5 0c1.24,-9.85 9.67,-17.49 19.84,-17.49l196.62 0c63.21,0 114.63,51.42 114.63,114.63l0 1289.35c0,63.21 -51.42,114.63 -114.63,114.63z" id="id_102" style="fill: rgb(0, 0, 0);"></path>
<path class="fil2" d="M1090.3 692.22c-1.92,9.05 -9.95,15.84 -19.57,15.84l-196.63 0c-41.15,0 -74.62,33.47 -74.62,74.63l0 1289.35c0,41.15 33.47,74.61 74.62,74.61l918.42 0.01c41.16,0 74.61,-33.46 74.61,-74.61l0 -1289.35c0,-41.15 -33.46,-74.63 -74.61,-74.63l-196.61 0c-9.61,0 -17.65,-6.8 -19.57,-15.84l-486.06 0z" id="id_103" style="fill: rgb(255, 255, 255);"></path>
<path class="fil3" d="M1563.56 812.43l-460.46 0c-28.88,0 -52.36,-23.48 -52.36,-52.37l0 -116.97c0,-28.88 23.48,-52.36 52.36,-52.36l101.04 0c9.65,-62.62 63.9,-110.72 129.18,-110.72 65.28,0 119.53,48.1 129.18,110.72l101.06 0c28.87,0 52.37,23.48 52.37,52.36l0 116.97c0,28.87 -23.48,52.37 -52.36,52.37zm-230.23 -134.79c-34.39,0 -62.37,-27.97 -62.37,-62.36 0,-34.39 27.98,-62.37 62.37,-62.37 34.39,0 62.37,27.98 62.37,62.37 0,34.39 -27.98,62.36 -62.37,62.36z" id="id_104" style="fill: rgb(0, 0, 0);"></path>
<g>
<path class="fil4" d="M1693.24 1045.43l-398.28 0c-11.04,0 -20,-8.96 -20,-20 0,-11.04 8.96,-20 20,-20l398.26 0c11.04,0 20,8.96 20,20 0,11.04 -8.96,20 -19.99,20z" id="id_105" style="fill: rgb(0, 0, 0);"></path>
<path class="fil4" d="M1693.24 1348.17l-398.28 0c-11.04,0 -20,-8.96 -20,-20 0,-11.04 8.96,-20 20,-20l398.26 0c11.04,0 20,8.96 20,20 0,11.04 -8.96,20 -19.99,20z" id="id_106" style="fill: rgb(0, 0, 0);"></path>
<path class="fil4" d="M1693.24 1650.92l-398.28 0c-11.04,0 -20,-8.97 -20,-20 0,-11.03 8.96,-20 20,-20l398.26 0c11.04,0 20,8.97 20,20 0,11.03 -8.96,20 -19.99,20z" id="id_107" style="fill: rgb(0, 0, 0);"></path>
<path class="fil4" d="M1693.24 1953.66l-398.28 0c-11.04,0 -20,-8.97 -20,-20 0,-11.03 8.96,-20 20,-20l398.26 0c11.04,0 20,8.97 20,20 0,11.03 -8.96,20 -19.99,20z" id="id_108" style="fill: rgb(0, 0, 0);"></path>
</g>
<path class="fil4" d="M1159.91 1146.05l-201.25 0c-11.04,0 -20,-8.96 -20,-20l0 -201.25c0,-11.04 8.96,-20 20,-20l201.25 0c11.04,0 20,8.96 20,20l0 201.25c0,11.04 -8.94,20 -20,20z" id="id_109" style="fill: rgb(0, 0, 0);"></path>
<path class="fil4" d="M1159.91 1448.8l-201.25 0c-11.04,0 -20,-8.97 -20,-20l0 -201.24c0,-11.04 8.96,-20 20,-20l201.25 -0.01c11.04,0 20,8.96 20,20l0 201.25c0,11.04 -8.94,20 -20,20z" id="id_110" style="fill: rgb(0, 0, 0);"></path>
<path class="fil4" d="M1159.91 1751.54l-201.25 0c-11.04,0 -20,-8.97 -20,-20l0 -201.26c0,-11.04 8.96,-20 20,-20l201.25 0c11.04,0 20,8.97 20,20l0 201.25c0,11.04 -8.94,20.01 -20,20.01z" id="id_111" style="fill: rgb(0, 0, 0);"></path>
<path class="fil4" d="M1159.91 2054.29l-201.25 0c-11.04,0 -20,-8.97 -20,-20l0 -201.25c0,-11.04 8.96,-20 20,-20l201.25 0c11.04,0 20,8.97 20,20l0 201.25c0,11.03 -8.94,20 -20,20z" id="id_112" style="fill: rgb(0, 0, 0);"></path>
<path class="fil5" d="M1040.97 1076.69c-5.13,0 -10.24,-1.96 -14.14,-5.85l-25.94 -25.94c-7.82,-7.82 -7.82,-20.47 0,-28.29 7.82,-7.82 20.47,-7.81 28.29,0l11.81 11.8 48.41 -48.39c7.82,-7.82 20.49,-7.82 28.28,0 7.82,7.82 7.82,20.47 0,28.28l-62.54 62.53c-3.93,3.9 -9.04,5.86 -14.16,5.86zm18.31 925.15c-37.59,0 -68.18,-30.58 -68.18,-68.18 0,-37.59 30.58,-68.18 68.18,-68.18 37.6,0 68.18,30.58 68.18,68.18 0,37.59 -30.58,68.18 -68.18,68.18zm36.39 -314.53c-5.12,0 -10.24,-1.96 -14.14,-5.86l-22.25 -22.25 -22.25 22.25c-3.91,3.91 -9.02,5.86 -14.14,5.86 -5.13,0 -10.24,-1.96 -14.14,-5.86 -7.82,-7.82 -7.82,-20.49 0,-28.3l22.24 -22.24 -22.24 -22.24c-7.82,-7.82 -7.82,-20.49 0,-28.3 7.82,-7.81 20.49,-7.82 28.28,0l22.25 22.25 22.25 -22.25c7.81,-7.82 20.47,-7.82 28.28,0 7.81,7.82 7.82,20.49 0,28.3l-22.24 22.24 22.24 22.24c7.82,7.82 7.82,20.49 0,28.3 -3.92,3.91 -9.04,5.86 -14.14,5.86zm-54.7 -307.85l0 0c-5.31,0 -10.41,-2.11 -14.15,-5.86l-25.94 -25.96c-7.81,-7.82 -7.81,-20.47 0,-28.29 7.82,-7.81 20.47,-7.81 28.29,0l11.81 11.8 48.41 -48.4c7.8,-7.82 20.47,-7.82 28.28,0 7.82,7.8 7.82,20.47 0,28.28l-62.54 62.56c-3.75,3.77 -8.84,5.88 -14.15,5.88z" id="id_113" style="fill: rgb(230, 230, 230);"></path>
</g>
</g>
</svg>