<svg xmlns="http://www.w3.org/2000/svg" width="255.999" height="255.999" viewBox="0 0 2666.66 2666.66" shape-rendering="geometricPrecision" text-rendering="geometricPrecision" image-rendering="optimizeQuality" fill-rule="evenodd" clip-rule="evenodd"><defs><style>.fil4{fill:#8ccceb}</style></defs><g id="Layer_x0020_1"><circle cx="1333.33" cy="1333.33" r="1333.33" id="id_101" fill="#383838"/><g id="_2151358357920"><path d="M1792.55 2186.66H874.11c-63.2 0-114.62-51.41-114.62-114.62V782.69c0-63.21 51.42-114.63 114.62-114.63h196.63c10.19 0 18.61 7.63 19.84 17.49h485.5c1.24-9.85 9.67-17.49 19.84-17.49h196.62c63.21 0 114.63 51.42 114.63 114.63v1289.35c0 63.21-51.42 114.63-114.63 114.63z" id="id_102" fill="#000"/><path d="M1090.3 692.22c-1.92 9.05-9.95 15.84-19.57 15.84H874.1c-41.15 0-74.62 33.47-74.62 74.63v1289.35c0 41.15 33.47 74.61 74.62 74.61l918.42.01c41.16 0 74.61-33.46 74.61-74.61V782.7c0-41.15-33.46-74.63-74.61-74.63h-196.61c-9.61 0-17.65-6.8-19.57-15.84h-486.06z" id="id_103" fill="#fff"/><path d="M1563.56 812.43H1103.1c-28.88 0-52.36-23.48-52.36-52.37V643.09c0-28.88 23.48-52.36 52.36-52.36h101.04c9.65-62.62 63.9-110.72 129.18-110.72s119.53 48.1 129.18 110.72h101.06c28.87 0 52.37 23.48 52.37 52.36v116.97c0 28.87-23.48 52.37-52.36 52.37zm-230.23-134.79c-34.39 0-62.37-27.97-62.37-62.36s27.98-62.37 62.37-62.37 62.37 27.98 62.37 62.37-27.98 62.36-62.37 62.36z" id="id_104" fill="#000"/><path class="fil4" d="M1693.24 1045.43h-398.28c-11.04 0-20-8.96-20-20s8.96-20 20-20h398.26c11.04 0 20 8.96 20 20s-8.96 20-19.99 20z" id="id_105" fill="#000"/><path class="fil4" d="M1693.24 1348.17h-398.28c-11.04 0-20-8.96-20-20s8.96-20 20-20h398.26c11.04 0 20 8.96 20 20s-8.96 20-19.99 20z" id="id_106" fill="#000"/><path class="fil4" d="M1693.24 1650.92h-398.28c-11.04 0-20-8.97-20-20s8.96-20 20-20h398.26c11.04 0 20 8.97 20 20s-8.96 20-19.99 20z" id="id_107" fill="#000"/><path class="fil4" d="M1693.24 1953.66h-398.28c-11.04 0-20-8.97-20-20s8.96-20 20-20h398.26c11.04 0 20 8.97 20 20s-8.96 20-19.99 20z" id="id_108" fill="#000"/><path class="fil4" d="M1159.91 1146.05H958.66c-11.04 0-20-8.96-20-20V924.8c0-11.04 8.96-20 20-20h201.25c11.04 0 20 8.96 20 20v201.25c0 11.04-8.94 20-20 20z" id="id_109" fill="#000"/><path class="fil4" d="M1159.91 1448.8H958.66c-11.04 0-20-8.97-20-20v-201.24c0-11.04 8.96-20 20-20l201.25-.01c11.04 0 20 8.96 20 20v201.25c0 11.04-8.94 20-20 20z" id="id_110" fill="#000"/><path class="fil4" d="M1159.91 1751.54H958.66c-11.04 0-20-8.97-20-20v-201.26c0-11.04 8.96-20 20-20h201.25c11.04 0 20 8.97 20 20v201.25c0 11.04-8.94 20.01-20 20.01z" id="id_111" fill="#000"/><path class="fil4" d="M1159.91 2054.29H958.66c-11.04 0-20-8.97-20-20v-201.25c0-11.04 8.96-20 20-20h201.25c11.04 0 20 8.97 20 20v201.25c0 11.03-8.94 20-20 20z" id="id_112" fill="#000"/><path d="M1040.97 1076.69a19.96 19.96 0 01-14.14-5.85l-25.94-25.94c-7.82-7.82-7.82-20.47 0-28.29s20.47-7.81 28.29 0l11.81 11.8 48.41-48.39c7.82-7.82 20.49-7.82 28.28 0 7.82 7.82 7.82 20.47 0 28.28l-62.54 62.53c-3.93 3.9-9.04 5.86-14.16 5.86zm18.31 925.15c-37.59 0-68.18-30.58-68.18-68.18 0-37.59 30.58-68.18 68.18-68.18 37.6 0 68.18 30.58 68.18 68.18 0 37.59-30.58 68.18-68.18 68.18zm36.39-314.53c-5.12 0-10.24-1.96-14.14-5.86l-22.25-22.25-22.25 22.25a19.92 19.92 0 01-14.14 5.86c-5.13 0-10.24-1.96-14.14-5.86-7.82-7.82-7.82-20.49 0-28.3l22.24-22.24-22.24-22.24c-7.82-7.82-7.82-20.49 0-28.3 7.82-7.81 20.49-7.82 28.28 0l22.25 22.25 22.25-22.25c7.81-7.82 20.47-7.82 28.28 0 7.81 7.82 7.82 20.49 0 28.3l-22.24 22.24 22.24 22.24c7.82 7.82 7.82 20.49 0 28.3a19.971 19.971 0 01-14.14 5.86zm-54.7-307.85c-5.31 0-10.41-2.11-14.15-5.86l-25.94-25.96c-7.81-7.82-7.81-20.47 0-28.29 7.82-7.81 20.47-7.81 28.29 0l11.81 11.8 48.41-48.4c7.8-7.82 20.47-7.82 28.28 0 7.82 7.8 7.82 20.47 0 28.28l-62.54 62.56a19.948 19.948 0 01-14.15 5.88z" id="id_113" fill="#e6e6e6"/></g></g></svg>